<svg width="25" height="17" viewBox="0 0 25 17" fill="none" xmlns="http://www.w3.org/2000/svg">
<path d="M1.78571 0H10.7143C11.1879 0 11.6421 0.17013 11.977 0.472965C12.3119 0.775799 12.5 1.18653 12.5 1.6148C12.5 2.04307 12.3119 2.45381 11.977 2.75664C11.6421 3.05947 11.1879 3.2296 10.7143 3.2296H1.78571C1.31211 3.2296 0.85791 3.05947 0.523024 2.75664C0.188137 2.45381 0 2.04307 0 1.6148C0 1.18653 0.188137 0.775799 0.523024 0.472965C0.85791 0.17013 1.31211 0 1.78571 0ZM14.2857 12.9184H23.2143C23.6879 12.9184 24.1421 13.0885 24.477 13.3914C24.8119 13.6942 25 14.1049 25 14.5332C25 14.9615 24.8119 15.3722 24.477 15.6751C24.1421 15.9779 23.6879 16.148 23.2143 16.148H14.2857C13.8121 16.148 13.3579 15.9779 13.023 15.6751C12.6881 15.3722 12.5 14.9615 12.5 14.5332C12.5 14.1049 12.6881 13.6942 13.023 13.3914C13.3579 13.0885 13.8121 12.9184 14.2857 12.9184ZM1.78571 6.45921H23.2143C23.6879 6.45921 24.1421 6.62934 24.477 6.93217C24.8119 7.23501 25 7.64574 25 8.07401C25 8.50228 24.8119 8.91301 24.477 9.21585C24.1421 9.51868 23.6879 9.68881 23.2143 9.68881H1.78571C1.31211 9.68881 0.85791 9.51868 0.523024 9.21585C0.188137 8.91301 0 8.50228 0 8.07401C0 7.64574 0.188137 7.23501 0.523024 6.93217C0.85791 6.62934 1.31211 6.45921 1.78571 6.45921Z" fill="white"/>
</svg>
